# xmcd
#
# Track frame offsets:
#	150
#	14788
#	28862
#	49582
#	63067
#	78134
#	92939
#	108138
#	121665
#	137892
#	152161
#
# Disc length: 2223 seconds
#
# Revision: 1
# Processed by: cddbd v1.5.2PL0 Copyright (c) Steve Scherf et al.
# Submitted via: audiograbber 1.83.01
#
DISCID=8508ad0b
DTITLE=Giddup - Hottest Musicthis Side Of West Hell
DYEAR=2007
DGENRE=Country
TTITLE0=Grey Wolf
TTITLE1=Cowboy Up And Settle Down
TTITLE2=Billy
TTITLE3=Ridng In The Rain
TTITLE4=Moonlight
TTITLE5=Stone Throw Into Mexico
TTITLE6=The Last Hing I Need
TTITLE7=No Horse Town
TTITLE8=Stampede
TTITLE9=Giddyup
TTITLE10=Firewagon
EXTD=
EXTT0=
EXTT1=
EXTT2=
EXTT3=
EXTT4=
EXTT5=
EXTT6=
EXTT7=
EXTT8=
EXTT9=
EXTT10=
PLAYORDER=
